<?xml version="1.0" encoding="utf-8"?>
<!-- Generator: Adobe Illustrator 16.0.0, SVG Export Plug-In . SVG Version: 6.00 Build 0)  -->
<!DOCTYPE svg PUBLIC "-//W3C//DTD SVG 1.1//EN" "http://www.w3.org/Graphics/SVG/1.1/DTD/svg11.dtd">
<svg version="1.1" id="CURVES" xmlns="http://www.w3.org/2000/svg" xmlns:xlink="http://www.w3.org/1999/xlink" x="0px" y="0px"
	 width="838.582px" height="312.287px" viewBox="0 0 838.582 312.287" enable-background="new 0 0 838.582 312.287"
	 xml:space="preserve">
<g id="trim">
	<g>
		<path fill="#B32625" d="M90.644,171.559c0,17.131-3.784,29.66-11.352,37.59c-9.06,9.428-20.468,14.14-34.228,14.14
			c-13.072,0-24.08-4.472-33.024-13.416c-5.504-5.505-9.06-12.556-10.664-21.156C0.457,183.672,0,174.439,0,161.023
			s0.457-22.645,1.376-27.691c1.604-8.6,5.16-15.652,10.664-21.156c8.944-8.944,19.952-13.416,33.024-13.416
			c8.256,0,15.249,1.204,20.984,3.612c5.389,2.408,10.893,6.423,16.512,12.04L66.392,130.58c-3.784-3.784-6.996-6.421-9.632-7.912
			c-3.327-1.72-7.224-2.58-11.696-2.58c-6.308,0-11.411,2.18-15.308,6.536c-2.983,3.44-4.816,8.944-5.504,16.512
			c-0.231,2.063-0.344,8.028-0.344,17.888c0,9.863,0.113,15.824,0.344,17.889c0.688,7.684,2.521,13.244,5.504,16.684
			c3.784,4.244,8.885,6.364,15.308,6.364c6.649,0,12.097-2.292,16.34-6.88c3.553-3.896,5.332-9.461,5.332-16.684v-4.301H45.064
			v-20.124h45.58V171.559z"/>
		<path fill="#B32625" d="M195.735,161.023c0,13.304-0.516,22.532-1.548,27.692c-1.491,8.487-5.047,15.539-10.664,21.156
			c-8.944,8.944-19.952,13.416-33.024,13.416c-13.188,0-24.252-4.472-33.196-13.416c-5.504-5.505-9.06-12.556-10.664-21.156
			c-0.919-5.044-1.376-14.276-1.376-27.692s0.457-22.645,1.376-27.691c1.604-8.6,5.16-15.652,10.664-21.156
			c8.944-8.944,20.008-13.416,33.196-13.416c13.072,0,24.08,4.472,33.024,13.416c5.617,5.62,9.172,12.672,10.664,21.156
			C195.219,138.492,195.735,147.724,195.735,161.023z M171.827,161.023c0-9.4-0.115-15.364-0.344-17.888
			c-0.688-7.568-2.58-13.072-5.676-16.512c-3.899-4.356-9.003-6.536-15.308-6.536c-6.423,0-11.583,2.18-15.48,6.536
			c-2.983,3.44-4.816,8.944-5.504,16.512c-0.231,2.063-0.344,8.028-0.344,17.888c0,9.863,0.113,15.824,0.344,17.889
			c0.688,7.568,2.521,13.072,5.504,16.512c3.897,4.359,9.057,6.536,15.48,6.536c7.109,0,12.669-2.752,16.684-8.256
			C170.279,189.463,171.827,178.568,171.827,161.023z"/>
		<path fill="#B32625" d="M300.999,99.792l-40.592,122.464h-17.888l-40.42-122.464h24.768l24.596,79.808l24.596-79.808H300.999z"/>
		<path fill="#B32625" d="M397.833,161.023c0,13.304-0.517,22.532-1.548,27.692c-1.492,8.487-5.048,15.539-10.664,21.156
			c-8.944,8.944-19.952,13.416-33.024,13.416c-13.188,0-24.252-4.472-33.196-13.416c-5.504-5.505-9.06-12.556-10.664-21.156
			c-0.919-5.044-1.376-14.276-1.376-27.692s0.457-22.645,1.376-27.691c1.604-8.6,5.16-15.652,10.664-21.156
			c8.944-8.944,20.008-13.416,33.196-13.416c13.072,0,24.08,4.472,33.024,13.416c5.616,5.62,9.172,12.672,10.664,21.156
			C397.317,138.492,397.833,147.724,397.833,161.023z M373.925,161.023c0-9.4-0.115-15.364-0.344-17.888
			c-0.688-7.568-2.58-13.072-5.676-16.512c-3.9-4.356-9.004-6.536-15.309-6.536c-6.423,0-11.583,2.18-15.48,6.536
			c-2.983,3.44-4.816,8.944-5.504,16.512c-0.231,2.063-0.344,8.028-0.344,17.888c0,9.863,0.113,15.824,0.344,17.889
			c0.688,7.568,2.521,13.072,5.504,16.512c3.897,4.359,9.057,6.536,15.48,6.536c7.108,0,12.669-2.752,16.685-8.256
			C372.377,189.463,373.925,178.568,373.925,161.023z"/>
		<path fill="#B32625" d="M510.666,222.256h-27.693l-23.908-48.848h-17.199v48.848h-23.908V99.792h47.988
			c12.152,0,21.9,3.671,29.24,11.008c6.992,6.996,10.492,15.824,10.492,26.488c0,8.144-2.236,15.136-6.709,20.983
			c-4.016,5.16-9.23,8.888-15.652,11.18L510.666,222.256z M481.77,137.202c0-4.789-1.607-8.667-4.816-11.634
			c-3.211-2.964-7.396-4.448-12.557-4.448h-22.531v32.164h22.531c5.16,0,9.346-1.48,12.557-4.447
			C480.162,145.871,481.77,141.994,481.77,137.202z"/>
		<path fill="#B32625" d="M550.051,222.256h-23.906V99.792h23.906V222.256z"/>
	</g>
	<path fill="#B32625" d="M789.633,0L563.898,85.256l18.203,107.917c1.027-0.213,2.094-0.329,3.209-0.329
		c4.127,0,7.68,1.462,10.664,4.387c2.979,2.924,4.471,6.449,4.471,10.577s-1.491,7.654-4.471,10.578
		c-2.549,2.498-5.516,3.919-8.897,4.283l5.328,31.587h55.833l57.637,58.031l0.031-58.031h132.676L789.633,0z M687.219,213.398
		c-8.543,6.595-19.408,9.89-32.594,9.89c-19.15,0-34.056-5.389-44.72-16.169l15.479-15.479c6.881,6.88,16.741,10.32,29.584,10.32
		c14.449,0,21.672-5.044,21.672-15.136c0-4.586-1.203-7.998-3.611-10.234s-6.079-3.697-11.008-4.386l-14.792-2.064
		c-21.673-2.98-32.509-14.389-32.509-34.228c0-11.121,3.842-20.094,11.524-26.918c7.681-6.821,18.06-10.234,31.132-10.234
		c16.512,0,29.697,4.76,39.561,14.276L681.801,128c-5.848-5.617-14.219-8.428-25.111-8.428c-6.079,0-10.75,1.462-14.018,4.386
		c-3.269,2.924-4.902,6.622-4.902,11.094c0,3.556,1.29,6.536,3.869,8.944c2.58,2.408,6.279,3.955,11.095,4.644l14.448,2.064
		c10.433,1.491,18.232,4.644,23.392,9.46c6.306,5.963,9.46,14.619,9.46,25.972C700.033,197.719,695.76,206.806,687.219,213.398z
		 M789.875,150.256v21h-48v30h57v21h-81v-122h81v21h-57v29H789.875z"/>
</g>
</svg>
