<svg width="206" height="20" viewBox="0 0 206 20" fill="none" xmlns="http://www.w3.org/2000/svg">
<g clip-path="url(#clip0_34_36)">
<path d="M22.3195 4.37831C21.6935 3.90881 20.9843 3.56451 20.1853 3.34541C19.3872 3.1263 18.5709 3.01758 17.739 3.01758C16.5759 3.01758 15.5867 3.16008 14.7638 3.44672C13.9451 3.73254 13.2054 4.09332 12.5481 4.53069C11.9105 4.0266 11.1618 3.65017 10.2978 3.39647C9.43289 3.14443 8.55072 3.01923 7.65372 3.01923C6.44784 3.01923 5.29632 3.18314 4.18764 3.51426C3.07977 3.84209 2.15642 4.27041 1.41345 4.79428C0.973601 5.10398 0.630946 5.43016 0.379721 5.77776C0.124377 6.12948 0 6.59815 0 7.19286V17.1052C0 17.6521 0.0708372 18.0961 0.212512 18.4371C0.355834 18.7731 0.560933 19.04 0.822866 19.2426C1.08398 19.4362 1.41016 19.5729 1.79152 19.6372C2.17372 19.7031 2.60451 19.7335 3.08719 19.7335C3.58881 19.7335 4.07809 19.7031 4.54759 19.6372C5.01792 19.5746 5.36139 19.5037 5.58214 19.4378V7.90864C5.78065 7.80074 6.01952 7.6846 6.30534 7.56434C6.58622 7.44408 6.92723 7.38231 7.3226 7.38231C7.88847 7.38231 8.37774 7.53057 8.78218 7.82463C9.18743 8.12198 9.39006 8.59725 9.39006 9.25291V17.1085C9.39006 17.6529 9.46172 18.0969 9.60422 18.4379C9.74589 18.774 9.95181 19.0441 10.2129 19.2435C10.4757 19.4387 10.8002 19.5738 11.1832 19.638C11.5687 19.7022 11.9995 19.7344 12.483 19.7344C12.964 19.7344 13.441 19.7006 13.9105 19.638C14.3833 19.5738 14.7407 19.5046 14.9788 19.4387V8.50005C14.9788 8.43745 14.9788 8.36662 14.9788 8.28754C14.9788 8.21094 14.9697 8.13186 14.9467 8.04208C15.1229 7.88723 15.384 7.73897 15.7341 7.59647C16.0858 7.45644 16.4128 7.38231 16.7192 7.38231C17.3543 7.38231 17.8559 7.53304 18.2299 7.82628C18.6022 8.12198 18.7867 8.5989 18.7867 9.2562V17.1043C18.7867 17.6513 18.8575 18.0952 19 18.4346C19.1434 18.7723 19.3476 19.0392 19.6096 19.2402C19.8715 19.437 20.196 19.5705 20.5791 19.6364C20.9645 19.7006 21.3945 19.7327 21.8788 19.7327C22.3796 19.7327 22.8689 19.699 23.3392 19.6364C23.8087 19.5705 24.1514 19.5013 24.3721 19.437V9.09146C24.3721 7.97536 24.1835 7.0273 23.8104 6.25056C23.4406 5.47135 22.9439 4.84699 22.3195 4.37831Z" fill="white"/>
<path d="M49.0274 4.98588C48.3396 4.37471 47.5159 3.8912 46.5645 3.54031C45.6115 3.18942 44.5572 3.01562 43.3958 3.01562C42.3662 3.01562 41.3563 3.17377 40.3728 3.49171C39.3885 3.80966 38.5121 4.29976 37.7469 4.96777C36.9776 5.63496 36.359 6.49076 35.8903 7.52944C35.42 8.5714 35.1836 9.81518 35.1836 11.26C35.1836 12.7269 35.42 14.0078 35.8903 15.1016C36.359 16.1988 37.0064 17.1098 37.8276 17.8305C38.6464 18.5545 39.6118 19.0941 40.718 19.459C41.8234 19.8189 43.0218 19.9993 44.3134 19.9993C45.0794 19.9993 45.9015 19.9351 46.777 19.8016C47.651 19.6748 48.4417 19.4219 49.141 19.0488C50.0603 18.5677 50.5207 17.8305 50.5207 16.8479C50.5207 16.4088 50.398 15.9953 50.1591 15.5975C49.9153 15.2005 49.6212 14.8932 49.2712 14.6774C48.7687 14.9814 48.1188 15.2507 47.3174 15.4805C46.5167 15.7071 45.6683 15.8248 44.7697 15.8248C43.8035 15.8248 42.9526 15.6461 42.2072 15.2829C41.4626 14.9237 40.9692 14.3768 40.7303 13.6544L48.847 12.4411C49.5875 12.3324 50.1715 12.0812 50.5866 11.6866C51.005 11.2945 51.2118 10.7262 51.2118 9.97826C51.2118 8.97007 51.0207 8.04177 50.6377 7.18843C50.2522 6.33426 49.7184 5.59871 49.0274 4.98588ZM40.3391 9.97992C40.3597 9.62903 40.4313 9.28638 40.5508 8.94866C40.671 8.60601 40.8522 8.30371 41.0911 8.02859C41.3333 7.7502 41.6463 7.53027 42.0293 7.35318C42.4107 7.17938 42.8686 7.09371 43.3925 7.09371C44.2014 7.09371 44.815 7.31282 45.2318 7.74524C45.6469 8.18593 45.8916 8.62413 45.955 9.06316L40.3391 9.97992Z" fill="white"/>
<path d="M70.5526 9.0334C71.1226 9.0334 71.5764 8.86454 71.9174 8.52354C72.2568 8.185 72.4248 7.6323 72.4248 6.86463C72.4248 6.42725 72.3614 6.02776 72.2436 5.66451C72.1201 5.30374 71.9965 5.00638 71.8631 4.76175H67.5609V2.66134C67.5609 1.56419 67.2957 0.849224 66.757 0.50904C66.2208 0.168033 65.4688 0 64.505 0C64.0034 0 63.5248 0.0362425 63.0768 0.114493C62.6287 0.193567 62.2836 0.263581 62.043 0.328652V14.3874C62.043 16.3576 62.5661 17.7835 63.6047 18.6582C64.6459 19.5338 66.1294 19.9745 68.0576 19.9745C69.635 19.9745 70.733 19.7076 71.3573 19.1829C71.9833 18.6582 72.2955 17.9778 72.2955 17.1443C72.2955 16.73 72.2247 16.3725 72.0813 16.0784C71.938 15.7868 71.7708 15.5134 71.5731 15.2753C71.3112 15.3618 71.0023 15.4326 70.6539 15.4895C70.3038 15.5414 69.9636 15.5727 69.6375 15.5727C68.9785 15.5727 68.4695 15.4524 68.107 15.2078C67.7479 14.9697 67.5667 14.5628 67.5667 13.9945V13.9961H67.5626V9.03669H70.5526V9.0334Z" fill="white"/>
<path d="M93.4819 3.66534C92.8691 3.26091 92.0347 3.05664 90.9853 3.05664C90.3511 3.05664 89.7152 3.10523 89.0801 3.2016C88.4451 3.30127 87.829 3.43883 87.2408 3.61263C86.6511 3.79137 86.0967 3.99235 85.5811 4.22298C85.0688 4.45196 84.6347 4.70649 84.2863 4.99231C83.9346 5.27977 83.6669 5.60266 83.4832 5.96344C83.297 6.32256 83.2031 6.75665 83.2031 7.2558V17.1138C83.2031 17.6623 83.2731 18.1038 83.4173 18.4432C83.5589 18.7809 83.764 19.0493 84.0268 19.2495C84.2871 19.4473 84.6116 19.5807 84.9946 19.6458C85.3768 19.7084 85.8084 19.7405 86.2911 19.7405C86.7928 19.7405 87.2812 19.7067 87.7515 19.6458C88.2202 19.5782 88.5645 19.5114 88.7861 19.4473H88.7844V8.24423C89.0653 8.11574 89.4121 8.00124 89.8165 7.90158C90.221 7.80356 90.6567 7.7113 91.1171 7.61987C91.5767 7.53421 92.0446 7.46832 92.5298 7.42713C93.0116 7.38183 93.4811 7.36206 93.9416 7.36206C94.07 7.11989 94.1821 6.85384 94.2677 6.55649C94.3567 6.26079 94.4028 5.96096 94.4028 5.65373C94.4045 4.73284 94.0964 4.06977 93.4819 3.66534Z" fill="white"/>
<path d="M118.301 5.32988C117.543 4.5968 116.644 4.0268 115.592 3.62402C114.54 3.21876 113.369 3.01367 112.075 3.01367C110.785 3.01367 109.613 3.21465 108.559 3.60837C107.507 4.00045 106.603 4.56302 105.847 5.29858C105.094 6.03166 104.506 6.92454 104.091 7.97557C103.671 9.02577 103.465 10.1954 103.465 11.4886C103.465 12.8049 103.671 13.9844 104.091 15.0363C104.506 16.0848 105.094 16.976 105.847 17.7132C106.604 18.4439 107.51 19.0081 108.559 19.4043C109.611 19.7988 110.781 19.9973 112.075 19.9973C113.369 19.9973 114.539 19.8145 115.592 19.4413C116.642 19.0723 117.546 18.5205 118.301 17.7981C119.057 17.0774 119.643 16.1861 120.059 15.126C120.475 14.0659 120.68 12.8543 120.68 11.4985C120.68 10.2276 120.475 9.06119 120.059 8.00934C119.643 6.95584 119.057 6.06626 118.301 5.32988ZM109.699 15.6829V7.19718L116.478 11.5059L109.699 15.6829Z" fill="#FCC000"/>
<path d="M142.402 3.78206C141.316 2.93448 139.744 2.50781 137.69 2.50781H133.793V19.9272H134.99V13H137.616C139.601 13 141.169 12.5758 142.314 11.7257C143.461 10.8781 144.034 9.52811 144.034 7.67811C144.034 5.93024 143.487 4.63046 142.402 3.78206ZM141.422 11.0025C140.531 11.6557 139.27 11.9811 137.64 11.9811H134.99V3.55389H137.69C139.371 3.55389 140.635 3.87184 141.483 4.50773C142.332 5.14444 142.757 6.20782 142.757 7.70364C142.759 9.24806 142.314 10.3477 141.422 11.0025Z" fill="white"/>
<path d="M156.638 2.50781H155.441V19.928H163.794L163.974 18.8078H156.638V2.50781Z" fill="white"/>
<path d="M178.107 2.50781L172.223 19.9272H173.446L175.049 15.0369H182.614L184.216 19.9272H185.516L179.632 2.50781H178.107ZM175.407 13.9686L178.869 3.50118L182.283 13.9686H175.407Z" fill="white"/>
<path d="M204.591 2.50781L199.853 11.9819L195.014 2.50781H193.664L199.218 13.1037V19.928H200.413V13.0774L205.915 2.50781H204.591Z" fill="white"/>
</g>
<defs>
<clipPath id="clip0_34_36">
<rect width="206" height="20" fill="white"/>
</clipPath>
</defs>
</svg>
