<svg width="24" height="24" viewBox="0 0 24 24" fill="none" xmlns="http://www.w3.org/2000/svg">
<rect x="6" y="5" width="13" height="14" fill="#212529"/>
<path d="M20.6834 3.2731C19.6266 2.23716 18.3733 1.43168 16.9067 0.862502C15.44 0.289818 13.8075 0 12.0035 0C10.2051 0 8.57113 0.28401 7.10171 0.840386C5.63509 1.39445 4.37479 2.18943 3.32083 3.22887C2.27105 4.2648 1.4513 5.52656 0.872737 7.0118C0.287201 8.49586 0 10.1487 0 11.9761C0 13.8362 0.287201 15.503 0.872737 16.9895C1.4513 18.4711 2.27105 19.7305 3.32083 20.7723C4.37619 21.8048 5.63927 22.6021 7.10171 23.162C8.56834 23.7195 10.1995 24 12.0035 24C13.8075 24 15.4386 23.7417 16.9067 23.2143C18.3705 22.6929 19.6308 21.9131 20.6834 20.8923C21.7373 19.8738 22.5543 18.6143 23.1342 17.1162C23.7142 15.6182 24 13.906 24 11.9901C24 10.1942 23.7142 8.54591 23.1342 7.05952C22.5543 5.57079 21.7373 4.3137 20.6834 3.2731ZM8.69102 17.9032V5.91183L18.1418 12.0006L8.69102 17.9032Z" fill="#FCC000"/>
</svg>
